<svg width="10" height="30" viewBox="0 0 10 30" fill="none" xmlns="http://www.w3.org/2000/svg">
<g id="Icon" clip-path="url(#clip0_1_171)">
<path id="Vector" d="M1.09414 20.6417C0.880817 20.6417 0.698458 20.5677 0.547066 20.4198C0.395673 20.2718 0.319977 20.0912 0.319977 19.8779C0.319977 19.6646 0.399114 19.4788 0.557388 19.3205L4.72757 15.1606L0.557388 11.0008C0.399114 10.8425 0.319977 10.6567 0.319977 10.4434C0.319977 10.23 0.395673 10.0494 0.547066 9.90145C0.698458 9.7535 0.880817 9.67953 1.09414 9.67953C1.29371 9.67953 1.47262 9.75178 1.6309 9.89629L6.33783 14.5826C6.50299 14.734 6.58556 14.9267 6.58556 15.1606C6.58556 15.3808 6.50299 15.5735 6.33783 15.7387L1.6309 20.425C1.48639 20.5695 1.30747 20.6417 1.09414 20.6417Z" fill="#0066CC"/>
</g>
<defs>
<clipPath id="clip0_1_171">
<rect width="9.51" height="29" fill="white" transform="matrix(1 0 0 -1 0.319977 29.64)"/>
</clipPath>
</defs>
</svg>
