<svg width="14" height="44" viewBox="0 0 14 44" fill="none" xmlns="http://www.w3.org/2000/svg">
<g clip-path="url(#clip0_1_326)">
<path d="M13.0729 17.6825C12.552 18.0014 12.1206 18.4473 11.8189 18.9783C11.5173 19.5094 11.3553 20.1083 11.3481 20.719C11.3502 21.4064 11.5538 22.078 11.9338 22.6508C12.3138 23.2235 12.8535 23.6722 13.486 23.9413C13.2366 24.7459 12.8676 25.5084 12.3912 26.2031C11.7096 27.1843 10.9969 28.1654 9.91251 28.1654C8.82811 28.1654 8.54921 27.5354 7.29951 27.5354C6.08081 27.5354 5.64701 28.1861 4.65551 28.1861C3.66401 28.1861 2.97211 27.2772 2.17681 26.1618C1.12628 24.5992 0.548917 22.7667 0.514008 20.8842C0.514008 17.7858 2.52801 16.1437 4.51091 16.1437C5.56441 16.1437 6.44231 16.8356 7.10331 16.8356C7.73331 16.8356 8.71451 16.1023 9.91251 16.1023C10.5285 16.0864 11.1389 16.2222 11.69 16.4978C12.2411 16.7733 12.716 17.1802 13.0729 17.6825ZM9.34451 14.7907C9.87261 14.1695 10.1716 13.3858 10.1914 12.5707C10.1923 12.4632 10.1819 12.356 10.1604 12.2507C9.25327 12.3393 8.41441 12.7717 7.81591 13.4591C7.28271 14.0556 6.97251 14.8183 6.93801 15.6176C6.93841 15.7148 6.9488 15.8117 6.96901 15.9068C7.04052 15.9203 7.11313 15.9272 7.18591 15.9275C7.60398 15.8942 8.01092 15.7763 8.382 15.5809C8.75309 15.3855 9.08055 15.1166 9.34451 14.7907Z" fill="black" fill-opacity="0.8"/>
</g>
<defs>
<clipPath id="clip0_1_326">
<rect width="14" height="44" fill="white"/>
</clipPath>
</defs>
</svg>
