<svg width="7" height="14" viewBox="0 0 7 14" fill="none" xmlns="http://www.w3.org/2000/svg">
<g id="Icon" clip-path="url(#clip0_1_184)">
<path id="Vector" d="M1.24646 10.6436C1.10518 10.6436 0.984416 10.5946 0.884155 10.4966C0.783895 10.3986 0.733765 10.279 0.733765 10.1377C0.733765 9.99642 0.786174 9.87337 0.890991 9.76855L3.65271 7.01367L0.890991 4.25879C0.786174 4.15397 0.733765 4.03092 0.733765 3.88965C0.733765 3.74837 0.783895 3.62874 0.884155 3.53076C0.984416 3.43278 1.10518 3.38379 1.24646 3.38379C1.37862 3.38379 1.49711 3.43164 1.60193 3.52734L4.71912 6.63086C4.82849 6.73112 4.88318 6.85872 4.88318 7.01367C4.88318 7.15951 4.82849 7.28711 4.71912 7.39648L1.60193 10.5C1.50623 10.5957 1.38774 10.6436 1.24646 10.6436Z" fill="#0066CC"/>
</g>
<defs>
<clipPath id="clip0_1_184">
<rect width="5.82" height="14" fill="white" transform="matrix(1 0 0 -1 0.730042 14)"/>
</clipPath>
</defs>
</svg>
