<svg width="14" height="44" viewBox="0 0 14 44" fill="none" xmlns="http://www.w3.org/2000/svg">
<g clip-path="url(#clip0_1_324)">
<path d="M13.0729 17.6825C12.5521 18.0014 12.1206 18.4473 11.8189 18.9783C11.5173 19.5094 11.3553 20.1083 11.3481 20.719C11.3502 21.4064 11.5538 22.078 11.9339 22.6508C12.3139 23.2235 12.8535 23.6722 13.486 23.9413C13.2367 24.7459 12.8676 25.5084 12.3912 26.2031C11.7096 27.1843 10.9969 28.1654 9.91254 28.1654C8.82814 28.1654 8.54924 27.5354 7.29954 27.5354C6.08084 27.5354 5.64704 28.1861 4.65554 28.1861C3.66404 28.1861 2.97214 27.2772 2.17684 26.1618C1.12631 24.5992 0.548948 22.7667 0.514038 20.8842C0.514038 17.7858 2.52804 16.1437 4.51094 16.1437C5.56444 16.1437 6.44234 16.8356 7.10334 16.8356C7.73334 16.8356 8.71454 16.1023 9.91254 16.1023C10.5285 16.0864 11.1389 16.2222 11.69 16.4978C12.2412 16.7733 12.7161 17.1802 13.0729 17.6825ZM9.34454 14.7907C9.87264 14.1695 10.1716 13.3858 10.1914 12.5707C10.1923 12.4632 10.1819 12.356 10.1604 12.2507C9.2533 12.3393 8.41444 12.7717 7.81594 13.4591C7.28275 14.0556 6.97254 14.8183 6.93804 15.6176C6.93844 15.7148 6.94883 15.8117 6.96904 15.9068C7.04055 15.9203 7.11316 15.9272 7.18594 15.9275C7.60401 15.8942 8.01095 15.7763 8.38204 15.5809C8.75312 15.3855 9.08058 15.1166 9.34454 14.7907Z" fill="black" fill-opacity="0.8"/>
</g>
<defs>
<clipPath id="clip0_1_324">
<rect width="14" height="44" fill="white"/>
</clipPath>
</defs>
</svg>
